<svg width="48" height="36" viewBox="0 0 48 36" fill="none" xmlns="http://www.w3.org/2000/svg">
<g clip-path="url(#clip0_10_981)" filter="url(#filter0_d_10_981)">
<path fill-rule="evenodd" clip-rule="evenodd" d="M13.9858 4.11462L4 14C5.99734 15.9773 8.27899 17.6437 10.7666 18.9474C11.4542 20.753 12.532 22.4463 14 23.8995C19.5229 29.3668 28.4772 29.3668 34 23.8995C35.468 22.4463 36.5458 20.753 37.2334 18.9473C39.721 17.6437 42.0027 15.9773 44 14L34.0223 4.12266C34.0149 4.11527 34.0075 4.10788 34 4.1005C28.4772 -1.36683 19.5229 -1.36683 14 4.1005C13.9953 4.10521 13.9905 4.10991 13.9858 4.11462ZM33.0445 20.7309C30.1345 21.7031 27.0797 22.201 24 22.201C20.9203 22.201 17.8656 21.7031 14.9556 20.7309C15.2709 21.145 15.619 21.5424 16 21.9196C20.4183 26.2935 27.5817 26.2935 32 21.9196C32.381 21.5424 32.7292 21.145 33.0445 20.7309ZM16.2051 5.8824C16.9554 6.37311 17.7532 6.79302 18.588 7.13536C20.3038 7.83892 22.1428 8.20104 24 8.20104C25.8572 8.20104 27.6962 7.83892 29.412 7.13536C30.2468 6.79302 31.0446 6.3731 31.795 5.88238C27.4318 1.77253 20.5682 1.77254 16.2051 5.8824Z" fill="#3B4158"/>
</g>
<defs>
<filter id="filter0_d_10_981" x="0" y="0" width="48" height="36" filterUnits="userSpaceOnUse" color-interpolation-filters="sRGB">
<feFlood flood-opacity="0" result="BackgroundImageFix"/>
<feColorMatrix in="SourceAlpha" type="matrix" values="0 0 0 0 0 0 0 0 0 0 0 0 0 0 0 0 0 0 127 0" result="hardAlpha"/>
<feOffset dy="4"/>
<feGaussianBlur stdDeviation="2"/>
<feComposite in2="hardAlpha" operator="out"/>
<feColorMatrix type="matrix" values="0 0 0 0 0 0 0 0 0 0 0 0 0 0 0 0 0 0 0.25 0"/>
<feBlend mode="normal" in2="BackgroundImageFix" result="effect1_dropShadow_10_981"/>
<feBlend mode="normal" in="SourceGraphic" in2="effect1_dropShadow_10_981" result="shape"/>
</filter>
<clipPath id="clip0_10_981">
<rect width="40" height="28" fill="white" transform="translate(4)"/>
</clipPath>
</defs>
</svg>
