<svg width="48" height="48" viewBox="0 0 48 48" fill="none" xmlns="http://www.w3.org/2000/svg">
<g clip-path="url(#clip0_10_987)">
<path d="M44.9965 13.4115C44.9965 13.4453 44.9965 13.4876 44.9877 13.5129C44.9437 13.8426 44.9437 14.1723 44.9701 14.5105C44.9877 14.595 45.0053 14.6795 45.0758 14.7472C45.1903 14.874 45.3664 14.8486 45.4369 14.6964C45.4722 14.6204 45.4722 14.5443 45.4545 14.4682C45.3664 14.147 45.3488 13.8088 45.34 13.4791C45.34 13.4622 45.34 13.4369 45.34 13.4115C45.4369 13.4031 45.525 13.3946 45.6042 13.3946C45.6659 13.3861 45.7188 13.3777 45.7628 13.3523C45.8949 13.2847 45.8949 13.141 45.754 13.0734C45.7011 13.048 45.6307 13.0396 45.569 13.0396C45.3488 13.048 45.1287 13.048 44.9084 13.048C44.8292 13.048 44.7499 13.0565 44.6706 13.0649C44.6266 13.0734 44.5737 13.0734 44.5385 13.0987C44.4768 13.1241 44.4417 13.1664 44.4417 13.2255C44.4504 13.2847 44.4768 13.3185 44.5385 13.3439C44.5737 13.3692 44.6178 13.3777 44.6618 13.3777C44.7675 13.3861 44.882 13.4031 44.9965 13.4115ZM47.4186 13.8004C47.4186 13.8088 47.4274 13.8173 47.4274 13.8173C47.4627 14.0455 47.4979 14.2653 47.5243 14.4851C47.5332 14.5612 47.542 14.6288 47.5948 14.688C47.7093 14.8317 47.8855 14.8148 47.9647 14.6626C48 14.5865 48.0087 14.5105 47.9912 14.4259C47.9383 14.1723 47.9119 13.9187 47.859 13.6736C47.8238 13.5214 47.7798 13.3777 47.7357 13.2424C47.7093 13.1579 47.6477 13.0987 47.542 13.0903C47.4363 13.0734 47.357 13.1241 47.3129 13.2002C47.2601 13.2678 47.2161 13.3354 47.1808 13.4115C47.1192 13.5468 47.0663 13.682 46.9959 13.8088C46.987 13.8426 46.9782 13.868 46.9606 13.8934C46.9519 13.8764 46.9431 13.868 46.9431 13.868C46.8285 13.6567 46.7228 13.4453 46.6083 13.2424C46.5907 13.2255 46.5819 13.2086 46.5731 13.1917C46.5203 13.1156 46.4586 13.0734 46.3617 13.0734C46.2736 13.0818 46.2031 13.1325 46.1592 13.2086C46.1415 13.2424 46.1415 13.2678 46.1327 13.3016C46.0975 13.5721 46.0534 13.8426 46.0182 14.1131C46.0006 14.2653 45.9918 14.4175 45.9918 14.5696C45.983 14.6034 45.9918 14.6457 46.0094 14.6795C46.027 14.7471 46.0799 14.7894 46.1503 14.7979C46.2384 14.8063 46.3 14.781 46.3265 14.7133C46.3529 14.6626 46.3617 14.6204 46.3705 14.5781C46.4058 14.4259 46.4322 14.2822 46.4586 14.1385C46.4762 14.054 46.485 13.9863 46.5115 13.8934C46.5291 13.9272 46.5466 13.9525 46.5643 13.9779C46.6435 14.0793 46.7228 14.1808 46.8197 14.2653C46.9166 14.3329 46.9959 14.3245 47.0751 14.2484C47.0928 14.2315 47.1016 14.223 47.1192 14.2061C47.1985 14.0878 47.2954 13.9694 47.3746 13.8511C47.3922 13.8342 47.401 13.8173 47.4186 13.8004Z" fill="#3A3B7B"/>
<path d="M27.1244 13.5776C27.0632 13.7383 27.0515 13.854 27.0798 13.9502C27.111 14.081 27.192 14.1238 27.302 14.0906C28.3366 13.845 30.6051 14.542 31.445 14.7362C31.6431 14.777 31.8042 14.5316 31.6691 14.3115C31.4718 14.0985 29.2043 13.1862 28.3391 13.1364C27.9999 13.118 27.3936 13.0346 27.1244 13.5776Z" fill="#3A3B7B"/>
<path d="M35.9904 10.6244C36.1006 10.6855 36.1622 10.7438 36.1927 10.8089C36.238 10.8942 36.2141 10.9533 36.1379 10.9835C35.4541 11.3038 34.5441 12.6829 34.1768 13.1585C34.0877 13.2679 33.8823 13.2044 33.8513 13.0244C33.8577 12.821 34.6643 11.3244 35.1145 10.9167C35.2915 10.7576 35.5837 10.4453 35.9904 10.6244Z" fill="#3A3B7B"/>
<path d="M30.5445 9.94553C30.6769 9.84971 30.8146 9.81614 30.8849 9.87841C31.9167 10.7253 32.4638 12.0664 32.8026 13.2942C32.8154 13.3228 32.8162 13.3639 32.806 13.4067C32.8017 13.4433 32.7739 13.482 32.7296 13.5119C32.6824 13.5449 32.6417 13.555 32.6225 13.5265C32.1703 12.9362 29.5875 10.6393 30.5445 9.94553Z" fill="#3A3B7B"/>
<path d="M8.69524 24.6286C8.94253 24.4519 9.21137 24.3048 9.49586 24.1906C9.7935 24.109 10.1107 24.1225 10.3997 24.2293C10.6885 24.336 10.9334 24.5301 11.0971 24.7823C11.2435 25.0338 11.3008 25.3242 11.2604 25.6097C11.2199 25.8952 11.084 26.1603 10.8729 26.3652C10.7093 26.5313 10.5235 26.676 10.3205 26.7956C9.41582 27.3565 8.50308 27.8867 7.59039 28.4476C7.40363 28.588 7.20551 28.714 6.99793 28.8242C6.68217 28.9753 6.32132 29.0158 5.97776 28.9386C5.6342 28.8615 5.32955 28.6715 5.11648 28.4016C4.95719 28.2104 4.82277 28.0014 4.71616 27.7791C3.8515 26.0348 2.95481 24.2982 2.12217 22.5231C1.73787 21.7548 1.42563 20.8711 1.12139 20.0181C0.989767 19.7703 0.964063 19.483 1.04976 19.2173C1.13545 18.9515 1.32577 18.7284 1.58025 18.5952C1.83473 18.4621 2.13327 18.4295 2.4124 18.5044C2.69152 18.5793 2.92921 18.7557 3.0749 18.9961C3.52271 19.5673 3.91911 20.174 4.25981 20.8096C5.12448 22.3464 5.94912 23.8832 6.78176 25.374C6.83024 25.4564 6.8837 25.5358 6.94188 25.6122C7.56859 25.3593 8.15803 25.0286 8.69524 24.6286Z" fill="#3A3B7B"/>
<path d="M17.6355 24.0925C15.658 26.3132 12.3434 25.7523 10.6781 22.8938C9.4932 20.8652 9.28505 17.5149 11.8631 15.4017C12.4136 14.9593 13.0718 14.658 13.7765 14.5257C14.6405 14.4069 15.5216 14.5532 16.2937 14.9437C17.0658 15.3343 17.6896 15.9491 18.0759 16.7004C19.4849 19.1593 19.2848 22.2944 17.6355 24.0925ZM16.8349 18.9134C16.6248 18.3091 16.2033 17.7933 15.6419 17.4534C15.3243 17.2361 14.9383 17.1304 14.549 17.1542C14.1596 17.178 13.7907 17.3298 13.5043 17.584C12.3595 18.5599 12.1192 20.8729 12.9519 22.2483C13.058 22.4726 13.2139 22.6719 13.4086 22.8324C13.6034 22.9928 13.8324 23.1104 14.0795 23.177C14.3265 23.2436 14.5858 23.2576 14.8391 23.218C15.0924 23.1783 15.3336 23.086 15.5459 22.9476C16.1665 22.4857 16.6218 21.8498 16.8485 21.1283C17.0752 20.4066 17.0621 19.6352 16.8109 18.9211L16.8349 18.9134Z" fill="#3A3B7B"/>
<path d="M25.7055 19.8816C25.5031 19.9234 25.294 19.9259 25.0904 19.8889C24.887 19.8519 24.6932 19.7763 24.5207 19.6665C24.3697 19.5836 24.2397 19.4696 24.14 19.3327C24.0405 19.1958 23.9737 19.0395 23.9446 18.8748C23.9155 18.7103 23.9248 18.5415 23.9718 18.3808C24.0188 18.22 24.1024 18.0713 24.2164 17.9452C24.4152 17.6918 24.6973 17.5105 25.0171 17.4304C25.8518 17.1978 26.7112 17.0561 27.579 17.0078C27.7697 16.9865 27.9629 17.002 28.1472 17.0533C28.3316 17.1047 28.5033 17.1909 28.6525 17.3069C28.8016 17.4228 28.9252 17.5662 29.0158 17.7286C29.1064 17.891 29.1623 18.0692 29.1802 18.2526C29.4304 19.1536 29.4578 20.0982 29.2603 21.0112C28.5398 23.9619 26.0578 24.9762 23.2717 24.031C22.4896 23.7783 21.8039 23.3075 21.3022 22.6786C20.633 21.9214 20.1586 21.0239 19.9171 20.0584C19.7214 19.1986 19.7428 18.3064 19.9797 17.4563C20.2164 16.6061 20.6616 15.8226 21.2781 15.1712C21.8632 14.4633 22.6226 13.9061 23.4879 13.5499C24.0346 13.2606 24.6744 13.1784 25.2813 13.3194C25.4189 13.3559 25.5439 13.4272 25.6432 13.5257C25.7425 13.6243 25.8125 13.7465 25.846 13.8798C25.8795 14.013 25.8752 14.1525 25.8336 14.2836C25.792 14.4148 25.7147 14.5329 25.6095 14.6257C25.4096 14.7994 25.1924 14.9538 24.961 15.0867C24.2492 15.5218 23.6298 16.0823 23.1356 16.7388C22.8116 17.1636 22.5885 17.6514 22.482 18.1678C22.3755 18.6842 22.3881 19.2167 22.5191 19.728C22.7007 20.425 23.1036 21.0507 23.672 21.5183C25.4333 23.0552 27.7231 21.5721 27.3228 19.4743C26.7384 19.6127 26.226 19.7587 25.7055 19.8816Z" fill="#3A3B7B"/>
<path d="M36.4659 24.2154C33.8639 25.7523 30.9016 24.2154 30.2531 20.9881C29.7807 18.6829 30.6774 15.4556 33.8159 14.2261C34.4836 13.9701 35.2079 13.8803 35.9215 13.9648C36.7788 14.1155 37.5654 14.5206 38.17 15.123C38.7747 15.7255 39.1672 16.4949 39.2921 17.3228C39.8205 20.066 38.6196 22.9937 36.4659 24.2154ZM37.3706 19.044C37.3698 18.4057 37.1346 17.788 36.7061 17.2997C36.4771 16.9977 36.146 16.7814 35.7693 16.6874C35.3926 16.5936 34.9937 16.628 34.6405 16.7849C33.2314 17.3689 32.2386 19.4897 32.5989 21.0496C32.6265 21.2944 32.7093 21.5305 32.8418 21.7414C32.9743 21.9522 33.1531 22.1327 33.3659 22.2703C33.5786 22.4079 33.8201 22.4992 34.0735 22.5379C34.3268 22.5766 34.586 22.5617 34.8326 22.4942C35.5775 22.2445 36.2224 21.7778 36.6773 21.1592C37.1323 20.5407 37.3747 19.8012 37.3706 19.044Z" fill="#3A3B7B"/>
<path d="M41.9234 24.861C41.8841 25.1422 41.7301 25.3969 41.4951 25.5692C41.2601 25.7413 40.9635 25.8169 40.6705 25.7792C40.3775 25.7415 40.112 25.5936 39.9326 25.3681C39.7532 25.1426 39.6745 24.8579 39.7137 24.5766C39.753 24.2954 39.9071 24.0407 40.142 23.8685C40.377 23.6962 40.6737 23.6207 40.9667 23.6584C41.2597 23.6961 41.5251 23.8439 41.7046 24.0695C41.884 24.295 41.9628 24.5797 41.9234 24.861ZM41.2269 14.495C41.3792 14.2718 41.6025 14.1019 41.8637 14.0105C42.1248 13.9191 42.4098 13.9111 42.676 13.9879C42.9467 14.0529 43.1858 14.2051 43.3534 14.4192C43.521 14.6332 43.6069 14.896 43.5968 15.1636C43.5614 15.5927 43.4946 16.019 43.3966 16.4391C43.1324 17.8607 42.8762 19.2822 42.596 20.6885C42.4679 21.2494 42.2998 21.7873 42.1156 22.3559C42.0515 22.5337 41.9445 22.6943 41.8034 22.8246C41.7156 22.9227 41.6035 22.9979 41.4775 23.0433C41.3514 23.0888 41.2154 23.103 41.0821 23.0846C40.9488 23.0662 40.8225 23.0159 40.7148 22.9382C40.6072 22.8605 40.5217 22.758 40.4664 22.6402C40.3711 22.4289 40.3194 22.2019 40.3142 21.9717C40.3142 21.0189 40.3142 20.0584 40.3783 19.0978C40.4871 17.727 40.7011 16.3658 41.0187 15.0252C41.0561 14.8456 41.1266 14.6739 41.2269 14.5181V14.495Z" fill="#3A3B7B"/>
<path fill-rule="evenodd" clip-rule="evenodd" d="M5.31263 31.0358C5.2181 31.2383 5.19218 31.4642 5.23837 31.6815C5.2691 31.9679 5.3366 32.2497 5.43933 32.5203C5.56759 32.8517 5.71111 33.1794 5.88807 33.5833C5.92876 33.6762 5.97129 33.7732 6.01579 33.8753C6.25443 34.4225 6.55386 35.1218 6.95326 36.1338C7.06631 36.4213 7.1667 36.7112 7.26779 37.003C7.30862 37.1209 7.34961 37.2392 7.39156 37.3578C7.54193 37.7794 7.80067 38.1581 8.14364 38.4582C8.28927 38.6232 8.48244 38.7434 8.69904 38.8035C8.91988 38.8648 9.15474 38.8609 9.37323 38.7924C9.59171 38.7238 9.7836 38.5937 9.924 38.4189C10.0616 38.2476 10.1435 38.0412 10.1594 37.8256C10.2487 37.4055 10.2182 36.9699 10.071 36.5649C9.83745 35.8924 9.57136 35.2189 9.26452 34.5602L9.26311 34.5573C8.75833 33.5268 8.24523 32.5033 7.70784 31.4795L7.70382 31.4723C7.5465 31.2056 7.34206 30.9671 7.09967 30.7677C6.94232 30.5897 6.72526 30.4696 6.48556 30.4282C6.24076 30.3859 5.98827 30.4285 5.77319 30.5484C5.56972 30.6599 5.40843 30.8306 5.31263 31.0358Z" fill="#3A3B7B"/>
<path fill-rule="evenodd" clip-rule="evenodd" d="M13.0224 28.4981C12.2309 28.3014 11.4043 28.2727 10.6002 28.4142C9.97737 28.473 9.36482 28.6109 8.93947 28.884C8.72314 29.023 8.54823 29.2015 8.45094 29.4284C8.35311 29.6565 8.34063 29.9173 8.42079 30.208C8.56717 30.7404 8.75725 31.2581 8.94666 31.7741L8.97734 31.8576L8.97808 31.8595C9.54839 33.3585 10.1241 34.8525 10.7051 36.3413C10.7729 36.5759 10.8687 36.8023 10.9906 37.0158L10.9929 37.0197C11.154 37.2849 11.3606 37.5221 11.604 37.7214C11.7257 37.8309 11.8762 37.9067 12.0395 37.9406C12.2043 37.9747 12.3757 37.9648 12.535 37.9119C12.6944 37.8589 12.8356 37.765 12.9431 37.6403C13.049 37.5176 13.1182 37.3699 13.1437 37.2126C13.2487 36.7854 13.2151 36.3375 13.0472 35.9292C12.9948 35.7918 12.9537 35.6513 12.9104 35.5035C12.896 35.4542 12.8814 35.404 12.8659 35.3529C14.1958 34.854 15.6109 34.1831 16.1085 32.6224C16.3033 32.083 16.3195 31.499 16.1549 30.9504C15.9901 30.4012 15.6521 29.9144 15.1873 29.557C14.5548 29.0568 13.8159 28.6953 13.0224 28.4981ZM10.8285 30.4125C10.8547 30.4052 10.881 30.3985 10.9075 30.3922C11.7733 30.2616 12.6591 30.4357 13.4019 30.8823C13.7292 31.1007 13.8633 31.3435 13.8863 31.5771C13.9101 31.8176 13.8189 32.0782 13.6359 32.3287C13.2901 32.8019 12.6589 33.1807 12.0888 33.2513C11.6732 32.3326 11.2511 31.3768 10.8285 30.4125Z" fill="#3A3B7B"/>
<path d="M18.2991 26.8166C19.2417 26.3988 20.4092 26.3266 21.3228 26.6204C21.5529 26.6847 21.7525 26.8239 21.8876 27.014C22.0217 27.203 22.0836 27.4307 22.0629 27.6583C22.0616 27.8061 22.0238 27.9515 21.9527 28.0827C21.8803 28.2162 21.7755 28.331 21.6471 28.4175C21.5187 28.5039 21.3706 28.5594 21.2151 28.5793C21.0596 28.5992 20.9015 28.5828 20.754 28.5316L20.7428 28.5277L20.7322 28.5224C20.6568 28.4845 20.5766 28.456 20.4937 28.4374L20.4884 28.4363C19.8457 28.2724 19.2395 28.5439 19.0181 28.8775C18.9125 29.0365 18.8994 29.1971 18.9873 29.3431C19.0815 29.4995 19.3126 29.675 19.7801 29.8001C19.9087 29.834 20.0405 29.8667 20.1741 29.8999C20.5438 29.9918 20.928 30.0872 21.2995 30.2195L21.3009 30.22C23.0148 30.8459 23.653 32.1421 23.4345 33.3613C23.2184 34.567 22.1693 35.6642 20.5916 35.9231C20.0176 36.0452 19.4201 36.0214 18.8585 35.8541C18.2954 35.6862 17.7879 35.3799 17.3863 34.9655L17.3758 34.9547C17.2491 34.7985 17.1638 34.6151 17.126 34.4205C17.0912 34.2448 17.1095 34.0633 17.1787 33.8973C17.2474 33.7323 17.3637 33.5894 17.5138 33.4854C17.6723 33.3674 17.8634 33.2966 18.0634 33.2818C18.2628 33.2671 18.4623 33.3087 18.6373 33.4014C18.8121 33.4825 18.9748 33.5859 19.1207 33.7089L19.1235 33.7111C19.3817 33.9378 19.6941 33.9968 19.9937 33.9421C20.2977 33.8866 20.5835 33.714 20.7673 33.485C20.95 33.2574 21.0233 32.987 20.9363 32.7246C20.8487 32.4602 20.5854 32.164 20.007 31.9164C19.8558 31.8548 19.699 31.8051 19.5359 31.7567C19.492 31.7436 19.4472 31.7307 19.402 31.7175C19.2814 31.6824 19.1573 31.6462 19.0357 31.6063C18.9519 31.5789 18.8687 31.5529 18.7864 31.5271C18.5614 31.4568 18.3421 31.3883 18.131 31.2963C17.6715 31.1462 17.2746 30.8579 16.9992 30.4741C16.7227 30.0888 16.5836 29.628 16.6025 29.1606C16.604 28.0215 17.3515 27.2367 18.2991 26.8166Z" fill="#3A3B7B"/>
<path d="M30.2486 26.6953C30.0659 26.6096 29.8638 26.5689 29.6606 26.5769C29.4574 26.585 29.2594 26.6414 29.0846 26.7412C28.9109 26.8403 28.7655 26.9792 28.6613 27.1453C28.5658 27.2852 28.4996 27.4417 28.4667 27.606C28.4337 27.7702 28.4345 27.9389 28.4689 28.1027C28.503 28.3132 28.5407 28.5179 28.578 28.7198C28.6397 29.0539 28.6997 29.3805 28.7393 29.7135L28.7408 29.7219C28.831 30.2441 28.8782 30.7722 28.8824 31.3015L28.8828 31.309C28.9136 31.8805 28.7107 32.441 28.3176 32.8714L28.3114 32.879C28.1835 33.0363 28.0124 33.1564 27.8174 33.2258C27.6224 33.2952 27.4112 33.3112 27.2073 33.2719C27.0033 33.2326 26.8149 33.1397 26.6629 33.0034C26.5109 32.8672 26.4012 32.6925 26.3465 32.5C26.2297 32.0942 26.162 31.6768 26.1449 31.2562L26.3444 28.207C26.3474 28.1672 26.3507 28.1264 26.3541 28.0851C26.3617 27.9925 26.3695 27.8982 26.3727 27.8102C26.3774 27.6808 26.3734 27.5476 26.342 27.4216C26.3098 27.2928 26.2487 27.1703 26.1402 27.066C26.0327 26.9627 25.8877 26.8865 25.7052 26.8346C25.3752 26.7429 25.0962 26.7458 24.8636 26.8405C24.631 26.9353 24.4716 27.1111 24.3588 27.3142C24.2469 27.5157 24.175 27.7541 24.1206 27.993C24.0802 28.1702 24.0478 28.3563 24.017 28.5334C24.0063 28.5944 23.9959 28.6543 23.9853 28.7125L23.9851 28.7142C23.8202 29.6854 23.7711 30.6716 23.8388 31.6535C23.8514 32.1841 23.9667 32.7079 24.1789 33.1981C24.4182 33.8305 24.8518 34.3785 25.4223 34.7697C25.994 35.1616 26.6762 35.3776 27.3787 35.389C28.0811 35.4004 28.7706 35.2067 29.3558 34.8336C29.9401 34.461 30.3929 33.927 30.6544 33.3023C31.0201 32.5064 31.1919 31.6409 31.1564 30.7717C31.1349 30.1371 31.0989 29.4977 31.0631 28.8615C31.0456 28.5494 31.028 28.238 31.0123 27.9284C31.0044 27.6181 30.8978 27.3175 30.7067 27.0669C30.5884 26.9086 30.4311 26.7808 30.2486 26.6953Z" fill="#3A3B7B"/>
<path d="M36.7175 31.4764C36.699 31.499 36.6794 31.5224 36.659 31.5467C36.5104 30.7236 36.3726 29.9008 36.2346 29.0768C36.1851 28.7811 36.1354 28.4842 36.0853 28.1881L36.0797 28.1551L36.0614 28.1266C36.027 28.0728 36.0236 28.0202 36.0236 27.9079V27.8949L36.0215 27.882C35.9842 27.6501 35.8748 27.4342 35.7079 27.2627C35.5413 27.0917 35.3251 26.9727 35.0872 26.921C34.8497 26.8648 34.6001 26.8772 34.3699 26.9567C34.1403 27.036 33.9401 27.1784 33.7944 27.3663C33.6733 27.5104 33.574 27.6703 33.4996 27.8412C33.3307 28.2092 33.1604 28.5782 32.9896 28.9481L32.9866 28.9545C32.5602 29.8781 32.1309 30.8079 31.7141 31.745L31.7128 31.748C31.4569 32.3556 31.2457 32.9958 31.0352 33.6341C30.9932 33.7615 30.9511 33.8889 30.9088 34.0159C30.8328 34.2173 30.7995 34.4312 30.8109 34.6451C30.7971 34.8366 30.8448 35.0276 30.9478 35.1923C31.0528 35.3603 31.2102 35.4926 31.3976 35.5704C31.5962 35.654 31.8182 35.6717 32.0286 35.6208C32.2385 35.57 32.4248 35.4537 32.5584 35.2903C32.7289 35.0889 32.8756 34.8693 32.9953 34.6367C33.3484 33.9434 33.6859 33.2418 34.0218 32.5431C34.1518 32.2729 34.2781 32.0309 34.4217 31.7673C34.4316 31.7998 34.4417 31.8315 34.4521 31.8633C34.6027 32.4996 34.8569 33.1091 35.2053 33.6695C35.2712 33.7882 35.3631 33.8919 35.4745 33.9736C35.5873 34.0563 35.7175 34.1143 35.856 34.1437C35.9946 34.1732 36.1381 34.1733 36.2767 34.1441C36.4151 34.115 36.5457 34.0569 36.6585 33.9747L36.8819 33.8142L38.6158 32.4125L38.5132 33.0396C38.3725 33.9016 38.2328 34.7565 38.0844 35.6115C37.9874 35.9905 37.9875 36.3863 38.0849 36.7652C38.127 36.9784 38.2344 37.1747 38.3934 37.329C38.5538 37.4847 38.7591 37.5904 38.9828 37.6326C39.2065 37.6747 39.4383 37.6513 39.648 37.5655C39.8547 37.4809 40.0305 37.3395 40.1533 37.1592C40.4392 36.8188 40.6171 36.4066 40.666 35.9718C40.7396 35.3578 40.8227 34.7355 40.9059 34.1133C41.0017 33.3961 41.0976 32.6792 41.1785 31.976L41.1787 31.9738C41.2566 31.204 41.2943 30.4311 41.2917 29.6578C41.3087 29.4134 41.2453 29.1699 41.1102 28.9618C40.9747 28.753 40.7739 28.5907 40.5366 28.4978C40.2898 28.3901 40.0135 28.3613 39.7484 28.4158C39.485 28.4698 39.2466 28.6031 39.0677 28.7961C38.7479 29.08 38.4479 29.3838 38.1696 29.7055L38.1677 29.7076C37.8639 30.071 37.5621 30.4415 37.2624 30.8096C37.0801 31.0333 36.8983 31.2566 36.7175 31.4764Z" fill="#3A3B7B"/>
</g>
<defs>
<clipPath id="clip0_10_987">
<rect width="47" height="29" fill="white" transform="translate(1 9.8468)"/>
</clipPath>
</defs>
</svg>
