<svg width="48" height="48" viewBox="0 0 48 48" fill="none" xmlns="http://www.w3.org/2000/svg">
<path d="M16.5 8.73596C18.8588 8.73596 21.1611 9.46175 23.0938 10.8141C25.026 12.1663 26.4956 14.0799 27.3037 16.2955C28.1118 18.5115 28.2196 20.9228 27.6113 23.2018C27.003 25.4807 25.7082 27.5173 23.9033 29.0358L23.2959 29.5475L24.0186 29.8746C26.9919 31.2202 29.5509 33.3373 31.4287 36.0065L31.4355 36.0162L31.4434 36.026C31.5892 36.2128 31.6954 36.4277 31.7559 36.6569C31.8163 36.8861 31.8297 37.1255 31.7949 37.36C31.7601 37.5944 31.678 37.8193 31.5537 38.0211C31.4293 38.2229 31.2651 38.3973 31.0713 38.5338C30.8774 38.6703 30.6577 38.766 30.4258 38.8151C30.1939 38.8641 29.9541 38.8662 29.7217 38.8199C29.4893 38.7736 29.2686 38.6796 29.0732 38.5455C28.878 38.4114 28.7116 38.2389 28.585 38.0387L28.5791 38.0289L28.5723 38.0192L28.3115 37.6598C26.9841 35.8851 25.2725 34.4307 23.3027 33.4069C21.2016 32.3148 18.868 31.7448 16.5 31.7448C14.132 31.7448 11.7984 32.3148 9.69727 33.4069C7.59622 34.499 5.78937 36.0812 4.42871 38.0192L4.42773 38.0201C4.26778 38.2499 4.05398 38.4378 3.80566 38.567C3.55748 38.6962 3.28172 38.7631 3.00195 38.7623H2.99805C2.63919 38.7634 2.28903 38.6517 1.99707 38.443L1.99512 38.442L1.8584 38.3346C1.55464 38.0715 1.34865 37.7105 1.2793 37.3112C1.20008 36.8547 1.30502 36.3847 1.57129 36.0055C3.44908 33.3365 6.00835 31.2201 8.98145 29.8746L9.7041 29.5475L9.09668 29.0358C7.29184 27.5173 5.99698 25.4806 5.38867 23.2018C4.78039 20.9229 4.88817 18.5115 5.69629 16.2955C6.50447 14.0797 7.97472 12.1663 9.90723 10.8141C11.8398 9.46177 14.1412 8.73598 16.5 8.73596ZM28.665 9.18323H28.666L28.6748 9.18127C29.6849 8.89373 30.7301 8.74791 31.7803 8.74963H31.7832C34.1433 8.74286 36.448 9.46404 38.3838 10.8141C40.3197 12.1642 41.7925 14.0783 42.6016 16.2955C43.4106 18.5127 43.5165 20.9251 42.9053 23.2047C42.294 25.4844 40.9954 27.5209 39.1855 29.0358L38.5752 29.5465L39.2998 29.8746C42.2731 31.2202 44.8321 33.3373 46.71 36.0065L46.7119 36.0094C46.8454 36.1961 46.9402 36.4078 46.9912 36.6315C47.0422 36.8551 47.049 37.0871 47.0098 37.3131C46.9705 37.539 46.8861 37.7546 46.7627 37.9479C46.6392 38.1413 46.4786 38.3083 46.29 38.4391L46.2842 38.443C45.9922 38.6517 45.6421 38.7625 45.2832 38.7614C45.0027 38.7596 44.7263 38.6926 44.4775 38.5631C44.2908 38.4659 44.1239 38.3356 43.9834 38.1803L43.8516 38.0172C42.4882 36.0833 40.681 34.5042 38.5811 33.4137C36.4807 32.323 34.1489 31.7523 31.7822 31.7496H31.7812C31.3173 31.7496 30.8721 31.5659 30.5439 31.2379C30.2158 30.9097 30.0312 30.4638 30.0312 29.9996C30.0314 29.5357 30.2159 29.0904 30.5439 28.7623C30.8721 28.4343 31.3172 28.2497 31.7812 28.2496C33.903 28.2496 35.9382 27.4072 37.4385 25.9069C38.9387 24.4066 39.7812 22.3713 39.7812 20.2496C39.7811 18.1282 38.9385 16.0936 37.4385 14.5934C35.9382 13.0931 33.903 12.2496 31.7812 12.2496C31.0501 12.2484 30.3223 12.3498 29.6191 12.5504L29.6133 12.5524C29.3909 12.6187 29.1575 12.6396 28.9268 12.6149C28.6961 12.5901 28.4728 12.5197 28.2695 12.4078C28.0662 12.2959 27.8865 12.1453 27.7422 11.9635C27.5979 11.7817 27.4916 11.5726 27.4287 11.3492C27.3658 11.1258 27.3477 10.8921 27.376 10.6617C27.4043 10.4314 27.4787 10.209 27.5938 10.0074C27.7088 9.80591 27.8629 9.62935 28.0469 9.48792C28.2308 9.34655 28.4408 9.24262 28.665 9.18323ZM18.0605 12.4039C16.5088 12.0953 14.9002 12.2535 13.4385 12.859C11.9768 13.4645 10.7276 14.4899 9.84863 15.8053C8.96966 17.1208 8.50008 18.6675 8.5 20.2496C8.5 22.3712 9.34264 24.4066 10.8428 25.9069C12.343 27.4071 14.3783 28.2496 16.5 28.2496C18.0821 28.2496 19.6288 27.7809 20.9443 26.902C22.2599 26.0229 23.2861 24.773 23.8916 23.3112C24.4969 21.8495 24.6553 20.2408 24.3467 18.6891C24.038 17.1374 23.2759 15.7121 22.1572 14.5934C21.0384 13.4746 19.6124 12.7126 18.0605 12.4039Z" fill="#4CAF4F" stroke="#4CAF4F"/>
</svg>
